<svg width="776" height="774" viewBox="0 0 776 774" fill="none" xmlns="http://www.w3.org/2000/svg">
<path fill-rule="evenodd" clip-rule="evenodd" d="M399.686 1.01915C489.223 -4.0259 591.912 7.99312 651.49 74.9942C709.424 140.147 667.555 242.921 689.746 327.221C709.938 403.929 786.667 464.825 774.75 543.244C762.341 624.909 698.375 692.313 627.752 735.204C560.335 776.148 478.293 777.65 399.686 771.031C326.74 764.889 260.488 737.006 197.925 699.013C129.862 657.679 56.8665 616.031 24.6027 543.25C-9.33978 466.682 -5.60679 377.854 20.242 298.191C46.1 218.5 101.72 153.924 167.695 102.254C235.78 48.9312 313.328 5.88505 399.686 1.01915Z" fill="#222222"/>
</svg>
